<svg width="113" height="25" viewBox="0 0 113 25" fill="none" xmlns="http://www.w3.org/2000/svg">
<path d="M21.4172 19.2078L17.4508 15.2414C18.2703 14.0063 18.75 12.5273 18.75 10.9375C18.75 6.62969 15.2453 3.125 10.9375 3.125C6.62969 3.125 3.125 6.62969 3.125 10.9375C3.125 15.2453 6.62969 18.75 10.9375 18.75C12.5273 18.75 14.0062 18.2703 15.2414 17.4508L19.2078 21.4172C19.8172 22.0273 20.8078 22.0273 21.4172 21.4172C22.0273 20.807 22.0273 19.818 21.4172 19.2078ZM5.46875 10.9375C5.46875 7.92188 7.92187 5.46875 10.9375 5.46875C13.9531 5.46875 16.4062 7.92188 16.4062 10.9375C16.4062 13.9531 13.9531 16.4062 10.9375 16.4062C7.92187 16.4062 5.46875 13.9531 5.46875 10.9375Z" fill="black"/>
<g clip-path="url(#clip0_4_94)">
<path d="M62.3751 22.6562H50.6564C50.0044 22.6561 49.3611 22.5071 48.7755 22.2205C48.1899 21.934 47.6774 21.5174 47.2773 21.0027C46.8771 20.488 46.5998 19.8887 46.4665 19.2506C46.3331 18.6124 46.3473 17.9522 46.5079 17.3203L48.8829 7.62499C48.9257 7.45165 49.0266 7.29819 49.1687 7.19016C49.3108 7.08213 49.4857 7.02604 49.6642 7.03124H62.7501C62.9224 7.02335 63.0925 7.07272 63.2339 7.17165C63.3752 7.27058 63.4798 7.4135 63.5314 7.57812L66.4845 17.0781C66.6864 17.7234 66.7329 18.4072 66.6202 19.0738C66.5075 19.7405 66.2388 20.371 65.836 20.9141C65.4399 21.4594 64.919 21.902 64.317 22.2051C63.7149 22.5082 63.0491 22.6629 62.3751 22.6562ZM50.2501 8.59374L47.9923 17.6953C47.8918 18.0969 47.8837 18.516 47.9687 18.9211C48.0538 19.3263 48.2297 19.7068 48.4832 20.0341C48.7367 20.3613 49.0612 20.6267 49.4323 20.8103C49.8033 20.9938 50.2112 21.0908 50.6251 21.0937H62.3439C62.769 21.0944 63.1883 20.9942 63.5672 20.8014C63.9461 20.6085 64.2739 20.3285 64.5235 19.9844C64.7804 19.6383 64.9518 19.2363 65.0238 18.8114C65.0957 18.3864 65.0662 17.9504 64.9376 17.5391L62.1876 8.59374H50.2501Z" fill="black"/>
<path d="M59.625 13.2812C59.4178 13.2812 59.2191 13.1989 59.0726 13.0524C58.9261 12.9059 58.8438 12.7072 58.8438 12.5V6.25C58.8438 5.6284 58.5968 5.03226 58.1573 4.59272C57.7177 4.15318 57.1216 3.90625 56.5 3.90625C55.8784 3.90625 55.2823 4.15318 54.8427 4.59272C54.4032 5.03226 54.1562 5.6284 54.1562 6.25V12.5C54.1562 12.7072 54.0739 12.9059 53.9274 13.0524C53.7809 13.1989 53.5822 13.2812 53.375 13.2812C53.1678 13.2812 52.9691 13.1989 52.8226 13.0524C52.6761 12.9059 52.5938 12.7072 52.5938 12.5V6.25C52.5938 5.214 53.0053 4.22043 53.7379 3.48786C54.4704 2.7553 55.464 2.34375 56.5 2.34375C57.536 2.34375 58.5296 2.7553 59.2621 3.48786C59.9947 4.22043 60.4062 5.214 60.4062 6.25V12.5C60.4062 12.7072 60.3239 12.9059 60.1774 13.0524C60.0309 13.1989 59.8322 13.2812 59.625 13.2812Z" fill="black"/>
</g>
<path d="M100.5 14.5833C103.377 14.5833 105.708 11.7851 105.708 8.33334C105.708 4.88156 103.377 2.08334 100.5 2.08334C97.6236 2.08334 95.2917 4.88156 95.2917 8.33334C95.2917 11.7851 97.6236 14.5833 100.5 14.5833Z" fill="black"/>
<path d="M110.708 19.8958C109.771 18.0208 108 16.4583 105.708 15.5208C105.083 15.3125 104.354 15.3125 103.833 15.625C102.792 16.25 101.75 16.5625 100.5 16.5625C99.2501 16.5625 98.2084 16.25 97.1667 15.625C96.6459 15.4167 95.9167 15.3125 95.2917 15.625C93.0001 16.5625 91.2292 18.125 90.2917 20C89.5626 21.3542 90.7084 22.9167 92.2709 22.9167H108.729C110.292 22.9167 111.438 21.3542 110.708 19.8958Z" fill="black"/>
<defs>
<clipPath id="clip0_4_94">
<rect width="25" height="25" fill="white" transform="translate(44)"/>
</clipPath>
</defs>
</svg>
